# xmcd
# 
# Track frame offsets:
#     150
#     30915
#     41396
#     57584
#     73107
#     93205
#     104930
#     165640
#     172710
#     189137
#     205222
#     217789
#     230803
#     245032
# 
# Disc length: 3585
# 
# Revision: 2
# Processed by: cddbd v1.5.2PL0 Copyright (c) Steve Scherf et al.
# Submitted via: fre:ac v1.0.17
# 
DISCID=bb0dff0e
DTITLE=Eiji Kitamura - Full Clarinet
DYEAR=1994
DGENRE=Jazz
TTITLE0=Partita
TTITLE1=Danny Boy
TTITLE2=If I had you
TTITLE3=Perdido
TTITLE4=Sophisticated Lady
TTITLE5=Lovely Green Sleeves
TTITLE6=G.Gershwin Melody
TTITLE7=Edelweiss
TTITLE8=Sicilenne
TTITLE9=Sicilenne
TTITLE10=Memories of you
TTITLE11=Amapola
TTITLE12=Stompin' at the SAVOY
TTITLE13=AkanSouCho
EXTD=YEAR: 1994
EXTT0=
EXTT1=
EXTT2=
EXTT3=
EXTT4=
EXTT5=
EXTT6=
EXTT7=
EXTT8=
EXTT9=
EXTT10=
EXTT11=
EXTT12=
EXTT13=
PLAYORDER=
